<mxfile host="app.diagrams.net" modified="2023-10-02T23:32:27.384Z" agent="Mozilla/5.0 (Macintosh; Intel Mac OS X 10_15_7) AppleWebKit/537.36 (KHTML, like Gecko) Chrome/117.0.0.0 Safari/537.36 Edg/117.0.2045.47" version="21.8.0" etag="zS4uaFh0Mye14m3iMhUN" type="github">
  <diagram name="Page-1" id="Vt3GQ1tzWCfuEJM-EMAH">
    <mxGraphModel>
      <root>
        <mxCell id="0" />
        <mxCell id="1" parent="0" />
      </root>
    </mxGraphModel>
  </diagram>
</mxfile>
